# xmcd
#
# Track frame offsets:
#	150
#	25557
#	33335
#	40775
#	61912
#	65887
#	67020
#	68707
#	70420
#	71890
#	76712
#	80475
#	83075
#	87087
#	92060
#	98365
#	104732
#	110507
#	116230
#	121062
#	125420
#	143852
#	153420
#	157095
#	159167
#	161980
#	163667
#	165225
#	168645
#	171582
#	174035
#	188752
#	190025
#	191842
#	195170
#	197575
#	201027
#	204472
#
# Disc length: 2764 seconds
#
# Revision: 1
# Processed by: cddbd v1.5.1PL0 Copyright (c) Steve Scherf et al.
# Submitted via: CDex 1.50Beta5
#
DISCID=070aca26
DTITLE=効果音 - 効果音/衝撃と恐怖のSe
DYEAR=1900
DGENRE=Unclassifiable
TTITLE0=台風
TTITLE1=洪水
TTITLE2=津波
TTITLE3=雷
TTITLE4=崖崩
TTITLE5=ガラス
TTITLE6=陶磁器
TTITLE7=ガラス瓶
TTITLE8=風船
TTITLE9=お化け1
TTITLE10=お化け2
TTITLE11=お化け3
TTITLE12=お化け4
TTITLE13=お化け5
TTITLE14=お化け6
TTITLE15=怪奇音楽1
TTITLE16=怪奇音楽2
TTITLE17=怪奇音楽3
TTITLE18=怪奇音楽4
TTITLE19=ジェット機離陸音
TTITLE20=サーキット直線コース
TTITLE21=Sl通過音
TTITLE22=新幹線通過音
TTITLE23=バイクスタート
TTITLE24=打ち上げ花火
TTITLE25=ネズミ花火
TTITLE26=爆竹
TTITLE27=ピストル
TTITLE28=機関銃
TTITLE29=大砲
TTITLE30=戦闘シーン
TTITLE31=ダイナマイト
TTITLE32=非常ベル
TTITLE33=サイレン
TTITLE34=目覚まし時計
TTITLE35=心理音1
TTITLE36=心理音2
TTITLE37=究極の目覚まし
EXTD=
EXTT0=
EXTT1=
EXTT2=
EXTT3=
EXTT4=
EXTT5=
EXTT6=
EXTT7=
EXTT8=
EXTT9=
EXTT10=
EXTT11=
EXTT12=
EXTT13=
EXTT14=
EXTT15=
EXTT16=
EXTT17=
EXTT18=
EXTT19=
EXTT20=
EXTT21=
EXTT22=
EXTT23=
EXTT24=
EXTT25=
EXTT26=
EXTT27=
EXTT28=
EXTT29=
EXTT30=
EXTT31=
EXTT32=
EXTT33=
EXTT34=
EXTT35=
EXTT36=
EXTT37=
PLAYORDER=
